<?xml version="1.0" encoding="UTF-8"?>
<!-- Generated by Pixelmator Pro 3.7 -->
<svg width="4384" height="4041" viewBox="0 0 4384 4041" xmlns="http://www.w3.org/2000/svg">
    <path id="Shape-copy" fill="#000000" fill-rule="evenodd" stroke="none" d="M 4383.678223 3566.210205 C 4383.955566 3574.744141 4384.883789 3582.178711 4382.10791 3588.830078 C 4380.687012 3592.234375 4377.683105 3595.217529 4374.633789 3597.325195 C 4371.957031 3599.175293 4368.495117 3599.832764 4365.509277 3600.762207 C 4362.50293 3601.697998 4359.181152 3602.522217 4355.974121 3603.129395 C 4346.682617 3604.888672 4336.419434 3606.353271 4325.298828 3607.168457 C 4310.19873 3608.274902 4294.69043 3607.690674 4279.98291 3607.867188 C 4270.648438 3607.979004 4261.15625 3608.019775 4252.733887 3608.10083 C 4243.327148 3608.191406 4232.647949 3608.373047 4222.081543 3608.428223 C 4020.136719 3609.481445 2704.802734 3603.074707 2493.627197 3608.000488 C 2475.113037 3608.432373 2458.295166 3606.188232 2443.878662 3610.334961 C 2439.436279 3611.612793 2434.876221 3614.210449 2431.328369 3617.408691 C 2427.302246 3621.038086 2424.161865 3625.294434 2422.178467 3630.312988 C 2419.783447 3636.37207 2419.880615 3643.622803 2419.421875 3650.453613 C 2417.69873 3676.117676 2419.516602 3706.080566 2419.588135 3736.216064 C 2419.689453 3779.132568 2419.903076 3824.435547 2419.95166 3866.136719 C 2419.989502 3898.86084 2420.361816 3933.352539 2419.904541 3965.04248 C 2419.63501 3983.734375 2420.629639 4002.691895 2418.372803 4019.013672 C 2417.69873 4023.886719 2417.69751 4029.384277 2414.942383 4032.648438 C 2412.274658 4035.809082 2407.060303 4036.839844 2402.504639 4038.130371 C 2396.717773 4039.769531 2391.385254 4040.101563 2385.884033 4040.419922 C 2342.11377 4042.953613 2068.917236 4035.557617 2020.546631 4032.651855 C 2008.707031 4031.94043 1996.278809 4031.312012 1985.235596 4029.153809 C 1979.230713 4027.97998 1972.95752 4027.605957 1968.804077 4024.298828 C 1966.307007 4022.310547 1964.806519 4018.805176 1963.893555 4015.584473 C 1958.457642 3996.40918 1961.908203 3973.959961 1961.266479 3948.835449 C 1960.553955 3920.931152 1960.554565 3892.602051 1960.313721 3867.612793 C 1960.223389 3858.211426 1960.12561 3848.668213 1960.107666 3840.244385 C 1960.064941 3820.304932 1960.342407 3796.888184 1960.325562 3773.088867 C 1960.301636 3739.334473 1961.545898 3703.881348 1959.852051 3671.539551 C 1958.816528 3651.776367 1961.145508 3636.44873 1954.90332 3622.218018 C 1952.928467 3617.71582 1949.473999 3614.008789 1945.506836 3611.648926 C 1941.594971 3609.321777 1936.318726 3609.073242 1931.594604 3608.402344 C 1921.321899 3606.943115 1909.531738 3606.832275 1897.994873 3606.621826 C 1885.808716 3606.399658 1874.498657 3607.10498 1863.696289 3607.186768 C 1662.219727 3608.712646 336.816223 3605.311768 121.34819 3604.888428 C 95.780029 3604.838135 69.647324 3606.131348 46.527412 3604.693115 C 36.234299 3604.052734 26.330048 3604.888672 18.006615 3601.206543 C 12.645538 3598.834717 8.529175 3595.077637 5.10717 3590.088135 C 2.097824 3585.700684 0.626785 3580.790527 0.039467 3575.894043 C -0.796494 3568.926758 1.357819 3560.986816 2.408028 3553.234375 C 13.784439 3469.263184 103.557449 2935.836914 119.228897 2852.391113 C 120.697372 2844.574707 122.547455 2836.435303 124.126862 2828.967529 C 125.259415 2823.612793 126.142502 2817.917725 127.570297 2812.862793 C 129.002213 2807.796875 130.473175 2802.140137 133.077164 2797.300049 C 135.683578 2792.455078 138.645645 2787.791504 142.718491 2784.539795 C 147.866394 2780.429688 155.221939 2778.325684 161.953537 2775.861816 C 169.745529 2773.009277 178.319244 2771.219482 185.996857 2769 C 191.777954 2767.328857 197.884277 2765.645996 203.44577 2763.891602 C 209.268127 2762.054932 215.51004 2759.697998 221.561981 2757.760742 C 227.575928 2755.836426 233.970428 2754.112793 239.735718 2752.27417 C 245.128387 2750.554443 250.995056 2748.701416 256.448547 2746.65625 C 262.873291 2744.24707 269.690857 2741.365967 276.045959 2738.524902 C 282.746124 2735.529053 289.525818 2731.90332 296.352142 2728.776367 C 303.070099 2725.699463 309.935455 2722.952148 316.669556 2719.910645 C 324.93222 2716.178955 333.126587 2712.297363 341.312164 2708.399902 C 348.83197 2704.818848 356.360931 2701.25293 363.792053 2697.491211 C 369.402985 2694.650146 375.038605 2691.840576 380.479553 2688.686035 C 386.106201 2685.423828 391.370148 2681.565918 396.9552 2678.233154 C 401.005463 2675.816406 405.204651 2673.657471 409.299438 2671.317139 C 413.093628 2669.148682 416.799835 2666.82666 420.625793 2664.715332 C 424.276306 2662.701172 428.187195 2661.1521 431.715881 2658.931641 C 434.769897 2657.01001 437.559875 2654.693848 440.382141 2652.445313 C 445.230469 2648.58252 449.544739 2644.052002 454.569763 2640.422363 C 459.308228 2636.999512 464.78302 2634.686279 469.536316 2631.284668 C 473.863953 2628.187988 477.698975 2624.455078 481.806763 2621.07251 C 486.707275 2617.037354 491.64801 2613.051758 496.570618 2609.043945 C 500.422302 2605.907959 504.217773 2602.701172 508.128479 2599.63916 C 511.565613 2596.948242 515.180481 2594.487793 518.590027 2591.761719 C 522.529541 2588.612793 526.372986 2585.341309 530.128845 2581.975586 C 533.629089 2578.838623 536.896729 2575.449219 540.36908 2572.281494 C 543.443604 2569.477051 546.809692 2566.98877 549.746155 2564.040527 C 552.522949 2561.251953 554.765198 2557.966797 557.503357 2555.140137 C 561.382813 2551.135742 565.732849 2547.614258 569.757202 2543.755371 C 575.120667 2538.612549 580.380005 2533.361328 585.603271 2528.076172 C 590.894714 2522.72168 596.226196 2517.399902 601.297058 2511.835938 C 606.40686 2506.229492 611.263062 2500.395264 616.129456 2494.575928 C 620.069946 2489.86377 623.784729 2484.964355 627.759399 2480.280518 C 631.119141 2476.321289 634.881226 2472.702148 638.083435 2468.614502 C 640.960938 2464.941406 643.404541 2460.947754 646.041199 2457.097656 C 649.641724 2451.840332 653.164612 2446.530762 656.776672 2441.281738 C 660.172058 2436.347168 663.646545 2431.467773 667.057373 2426.543945 C 669.559265 2422.932129 671.959717 2419.249756 674.527527 2415.68457 C 677.585388 2411.438477 680.949646 2407.41748 683.974792 2403.147949 C 688.066589 2397.373047 691.952881 2391.452148 695.736145 2385.470703 C 700.937073 2377.248535 705.993469 2368.928711 710.765381 2360.450195 C 714.704163 2353.452148 718.13092 2346.176514 721.983459 2339.130615 C 724.451477 2334.616699 726.980835 2330.13501 729.60321 2325.708984 C 731.532898 2322.45166 733.699097 2319.152588 735.572693 2316.046875 C 739.036987 2310.30542 743.129211 2303.47998 746.737366 2297.098633 C 753.306946 2285.47998 759.600708 2273.705566 765.820557 2261.895996 C 770.05249 2253.861084 773.827454 2245.585938 778.226013 2237.640869 C 779.748047 2234.891602 781.559265 2232.307129 783.061218 2229.546387 C 784.627563 2226.66748 785.953613 2223.579102 787.40979 2220.728271 C 788.557007 2218.482666 789.762024 2216.167236 790.908936 2214.111816 C 792.564941 2211.144043 794.795349 2207.958496 796.529785 2204.546875 C 799.215454 2199.264648 801.588074 2193.315674 803.831116 2187.718994 C 806.118958 2182.009766 807.966003 2175.908691 810.3172 2170.113281 C 812.540405 2164.633301 815.239014 2159.355957 817.517456 2153.898438 C 819.642578 2148.808105 821.537292 2143.624756 823.548889 2138.48877 C 825.752319 2132.862305 827.895203 2127.211914 830.162781 2121.610596 C 832.949036 2114.728027 836.054626 2107.975342 838.751282 2101.057129 C 841.206482 2094.757568 843.319275 2088.329346 845.658386 2081.98584 C 848.279114 2074.878418 850.832092 2067.743896 853.643372 2060.709717 C 856.701843 2053.056885 860.098694 2045.543945 863.304138 2037.95166 C 865.575073 2032.572754 867.965698 2027.241943 870.085022 2021.801758 C 871.499634 2018.169922 872.774902 2014.484619 874.044067 2010.799072 C 876.766968 2002.893311 879.259277 1994.909424 881.885498 1986.970947 C 886.334595 1973.521973 890.670288 1960.033936 895.295227 1946.644043 C 899.238342 1935.22876 903.584717 1923.955078 907.519592 1912.537109 C 910.371094 1904.261719 913.177856 1895.968506 915.769165 1887.608154 C 917.651123 1881.536377 919.253296 1875.380859 921.067261 1869.288574 C 923.327881 1861.696533 925.694397 1854.136475 928.028015 1846.56665 C 931.268372 1836.054932 934.600037 1825.571045 937.804688 1815.047852 C 941.14679 1804.071777 944.730713 1793.161621 947.661011 1782.068359 C 950.342773 1771.916016 952.199341 1761.561279 954.723755 1751.368652 C 957.348877 1740.769775 960.452148 1730.293701 963.128418 1719.707764 C 965.255371 1711.29541 967.458252 1702.895264 969.209106 1694.396729 C 970.296631 1689.117676 970.711792 1683.706299 971.954468 1678.46167 C 973.220459 1673.118408 975.327515 1668.004639 976.740112 1662.697998 C 978.350464 1656.648438 979.551758 1650.497314 980.941406 1644.393311 C 982.21875 1638.782227 983.016479 1633.042969 984.743408 1627.553711 C 985.650024 1624.672607 987.257446 1622.044434 988.167603 1619.164551 C 988.997437 1616.538818 989.538818 1613.824219 990.008179 1611.110596 C 990.952148 1605.652832 991.209229 1600.096924 991.961792 1594.609619 C 992.800049 1588.497803 993.495972 1582.349609 994.813599 1576.322998 C 995.681274 1572.355225 996.906128 1568.47168 998.131348 1564.599365 C 999.580566 1560.020264 1001.752441 1555.666504 1002.898193 1551.002441 C 1004.426392 1544.782227 1004.628906 1538.307617 1005.667114 1531.987061 C 1007.091919 1523.310547 1008.828979 1514.688477 1010.41333 1506.039795 C 1012.245361 1496.038818 1014.536743 1486.111328 1015.918457 1476.038574 C 1016.815674 1469.494873 1016.834106 1462.851074 1017.721436 1456.306152 C 1018.75354 1448.692871 1020.22168 1441.139893 1021.811401 1433.623291 C 1023.526489 1425.512451 1025.922241 1417.556885 1027.685181 1409.456543 C 1028.636108 1405.087402 1029.601929 1400.712158 1030.221313 1396.283691 C 1031.101929 1389.987061 1031.099121 1383.591553 1031.891235 1377.283203 C 1032.999634 1368.45752 1034.640137 1359.705322 1036.198853 1350.947754 C 1037.635742 1342.876709 1039.431274 1334.87207 1040.848877 1326.797852 C 1042.087158 1319.746094 1043.134277 1312.661865 1044.215332 1305.584229 C 1045.443115 1297.546387 1046.695801 1289.510742 1047.757935 1281.448975 C 1048.719482 1274.151611 1049.29834 1266.806152 1050.319092 1259.516846 C 1051.096802 1253.96167 1052.272095 1248.466797 1053.033325 1242.90918 C 1053.547729 1239.151123 1053.852173 1235.367188 1054.284546 1231.598877 C 1055.328369 1222.505371 1056.410767 1213.416016 1057.526978 1204.331055 C 1059.220825 1190.547119 1061.142212 1176.790771 1062.770996 1162.999023 C 1063.662231 1155.452881 1064.366699 1147.885254 1065.248291 1140.337891 C 1065.903687 1134.727539 1066.744751 1129.138916 1067.338867 1123.521729 C 1068.161621 1115.740234 1068.511475 1107.913086 1069.37854 1100.136719 C 1070.302246 1091.852783 1071.885132 1083.649414 1072.746704 1075.358643 C 1073.352417 1069.529541 1073.470093 1063.658447 1074.011597 1057.823486 C 1074.512695 1052.422363 1075.187988 1047.039063 1075.848267 1041.655518 C 1076.626709 1035.311279 1077.742432 1029.006836 1078.353149 1022.643799 C 1078.959106 1016.330078 1079.021362 1009.974854 1079.500732 1003.650391 C 1080.222046 994.137451 1081.034668 984.628906 1082.100342 975.148193 C 1083.061646 966.595215 1084.469238 958.097168 1085.521484 949.554932 C 1086.151245 944.444092 1086.835205 939.335693 1087.252686 934.203125 C 1087.825562 927.156738 1087.87085 920.076904 1088.311157 913.02124 C 1089.040894 901.320801 1089.969482 889.632813 1090.935425 877.949463 C 1091.72168 868.44165 1093.191284 858.314209 1093.516479 849.445313 C 1093.685425 844.834961 1093.349731 840.390137 1093.287842 836.002197 C 1093.221313 831.270752 1092.971436 826.47168 1093.123535 821.408203 C 1093.516357 808.321045 1095.30481 793.439209 1096.179443 778.609619 C 1097.349365 758.766602 1097.589355 737.735352 1098.983154 718.416992 C 1099.81897 706.835693 1101.42334 695.603027 1102.195679 685.571533 C 1102.676514 679.331299 1103.047607 673.035889 1103.287231 666.149902 C 1103.637451 656.099854 1103.179199 645.126709 1103.710083 634.713623 C 1104.203247 625.040771 1104.893555 614.968994 1106.26123 605.94873 C 1107.000732 601.073975 1107.474854 595.94873 1109.297363 591.880615 C 1111.085693 587.889648 1114.29541 583.985352 1117.602173 580.48584 C 1121.748413 576.098633 1126.315552 572.003418 1131.447632 569.144043 C 1138.384399 565.278809 1147.252686 563.473633 1155.457642 560.909424 C 1166.007202 557.612793 1177.372314 554.369141 1188.049683 551.699707 C 1196.53772 549.578125 1205.490967 547.977539 1213.522461 546.150635 C 1219.012451 544.901855 1224.839966 543.708252 1230.129395 542.212891 C 1235.353638 540.736084 1240.782837 538.431152 1246.116455 536.948975 C 1251.371826 535.488525 1257.055786 534.437988 1262.252075 533.270996 C 1266.563965 532.302734 1271.141846 531.343018 1275.351807 530.373291 C 1280.842163 529.108887 1286.901489 527.529053 1292.812866 526.192627 C 1299.11731 524.767334 1305.731323 523.43335 1311.736328 522.165039 C 1317.31665 520.986816 1323.414307 519.739258 1329.205566 518.504883 C 1336.268433 516.999268 1343.90332 515.442871 1351.03833 513.77002 C 1358.432617 512.036377 1366.229858 509.784668 1373.589355 508.083008 C 1379.219238 506.78125 1385.04895 505.506592 1390.344849 504.555664 C 1396.531738 503.444824 1403.556396 502.669678 1410.374146 501.572266 C 1418.581421 500.251221 1427.194336 498.666748 1435.118652 497.290771 C 1442.31189 496.041504 1450.056274 494.686768 1457.331665 493.419678 C 1464.711304 492.13501 1472.584473 490.775391 1479.906006 489.493164 C 1486.176025 488.39502 1492.769409 487.183105 1498.838989 486.153564 C 1504.686646 485.161865 1511.052246 484.232422 1517.046631 483.187988 C 1524.748901 481.845947 1533.106445 480.186035 1541.07373 478.728027 C 1549.877686 477.116943 1559.249146 475.299072 1568.015015 473.868408 C 1575.757202 472.605469 1583.962158 471.364014 1591.556152 470.429199 C 1598.881226 469.527588 1606.884155 469.339355 1614.297729 468.150879 C 1620.38916 467.174316 1625.56665 465.906738 1630.8125 464.490967 C 1634.790771 463.417236 1638.767578 461.467041 1643.023315 460.591064 C 1651.69043 458.806885 1661.749878 458.853271 1671.446533 457.828369 C 1684.09436 456.491455 1697.515015 454.727051 1710.007446 453.424072 C 1722.077148 452.165039 1735.068115 451.229736 1747.185425 449.912842 C 1758.064209 448.730713 1769.479248 447.220703 1779.976685 445.881592 C 1787.818848 444.881104 1796.016724 443.655762 1803.561401 442.763428 C 1811.027832 441.880615 1819.185303 441.080811 1826.952026 440.321777 C 1839.885986 439.057129 1854.254028 437.422119 1868.23645 436.559326 C 1880.974487 435.773193 1893.972412 436.335449 1905.363647 435.356201 C 1912.645386 434.730225 1920.362183 434.393799 1927.686157 432.229736 C 1934.24585 430.291504 1940.384888 428.548096 1944.743408 424.294922 C 1947.656006 421.452393 1949.04541 417.02124 1950.289551 413.09668 C 1952.062012 407.506348 1952.631104 400.959717 1953.140869 394.75415 C 1957.115234 346.388184 1954.973877 112.05127 1956.41687 59.472168 C 1956.793945 45.727539 1956.262085 31.89209 1958.196899 20.032227 C 1958.894653 15.754883 1959.464233 10.979004 1961.759277 7.564453 C 1963.906372 4.370117 1966.94165 1.827148 1970.82251 0.448242 C 1975.263672 -1.128906 1979.360596 0.029297 1983.914551 0.226074 C 1989.949219 0.487793 1996.113281 1.809082 2002.730469 2.185059 C 2051.635254 4.962402 2331.805176 5.202148 2378.095947 5.832031 C 2385.580322 5.934082 2393.360352 4.848145 2400.026367 6.21582 C 2403.597656 6.94873 2407.694336 7.872559 2410.229492 10.376953 C 2413.432617 13.540527 2414.35791 18.185547 2415.552734 22.984375 C 2417.904541 32.434082 2417.820068 43.522949 2418.316895 54.156738 C 2420.495361 100.798828 2411.952393 354.565674 2420.000488 397.926025 C 2421.807373 407.658691 2423.347168 415.796143 2429.4104 422.763916 C 2433.855713 427.87207 2439.760254 429.801025 2445.777344 431.719971 C 2450.108887 433.101074 2455.079102 432.617676 2459.427246 433.31958 C 2463.479004 433.974121 2467.76123 435.157959 2471.87085 435.888184 C 2477.405029 436.871826 2483.522461 437.678223 2489.38208 438.503174 C 2496.085938 439.446777 2503.22168 440.396973 2509.856201 441.209229 C 2519.023682 442.331543 2529.224365 443.553467 2539.139893 444.509277 C 2551.758789 445.725342 2565.276611 446.656006 2577.86792 447.612061 C 2589.181885 448.470703 2601.194336 448.886963 2612.207031 450.074463 C 2620.190918 450.934814 2628.176758 452.453369 2635.610352 453.448975 C 2641.004639 454.171875 2646.311035 454.990723 2651.695557 455.44043 C 2656.915039 455.876221 2662.550537 455.549072 2667.763184 456.138916 C 2674.556396 456.907471 2681.855713 458.914551 2688.983643 460.042725 C 2698.378174 461.529541 2708.608398 462.647705 2718.23291 463.924316 C 2726.587402 465.032227 2735.295898 465.895264 2743.094727 467.219971 C 2749.283936 468.27124 2755.868896 469.914795 2762.125977 471.170898 C 2768.082764 472.366455 2774.332031 473.843262 2780.167725 474.669189 C 2785.172607 475.377441 2790.578613 475.533203 2795.583252 476.054443 C 2802.140381 476.737793 2809.372803 477.505615 2816.308105 478.510498 C 2825.112305 479.786865 2834.469971 481.756104 2843.309082 483.142334 C 2851.625977 484.446533 2860.516602 485.293945 2868.623047 486.741699 C 2874.231689 487.743652 2879.890381 489.277588 2885.047119 490.28125 C 2888.633545 490.979004 2892.515869 491.511475 2896.15332 492.21167 C 2902.448486 493.423584 2909.444092 495.029541 2916.330322 496.474609 C 2924.196045 498.125 2932.380371 499.959717 2939.905273 501.38623 C 2946.069824 502.554932 2952.786621 503.218506 2958.927002 504.637207 C 2964.502441 505.925781 2970.159668 508.111084 2975.524902 509.499756 C 2980.459961 510.776855 2985.852295 511.842773 2990.899902 512.963379 C 2997.708984 514.475342 3005.202148 516.104736 3012.387695 517.665039 C 3020.765137 519.484131 3029.681152 521.488525 3038.009521 523.186523 C 3044.188721 524.446777 3050.582764 525.595703 3056.304932 526.706299 C 3060.547363 527.529541 3065.150391 528.379395 3069.478516 529.2854 C 3074.359863 530.307617 3079.608643 531.408447 3084.487061 532.632568 C 3089.384766 533.861816 3094.561523 535.357178 3099.362793 536.786865 C 3104.970459 538.456787 3110.984863 540.672607 3116.859619 542.323242 C 3124.072021 544.349854 3132.007324 545.884277 3139.34082 547.857666 C 3145.672363 549.561035 3152.222168 551.424805 3158.124268 553.346924 C 3162.930908 554.912842 3167.927979 557.067871 3172.794434 558.625244 C 3176.929932 559.949463 3181.298584 561.081299 3185.250244 562.128418 C 3188.397949 562.962402 3191.819092 563.726074 3195.016846 564.558594 C 3200.074219 565.875488 3205.926514 566.729248 3211.134277 568.941895 C 3217.248047 571.539063 3222.807129 574.404541 3227.466064 578.686035 C 3231.391113 582.292969 3234.679443 587.177246 3237.001465 591.977783 C 3239.703613 597.563721 3240.862305 603.847656 3242.205078 610.155518 C 3243.745605 617.39209 3244.689697 625.316162 3245.403564 632.739746 C 3247.077881 650.156006 3247.418213 669.857422 3248.324463 689.950195 C 3249.129883 707.813232 3248.719482 725.437012 3250.294922 740.288086 C 3250.931641 746.291748 3252.955322 752.918701 3253.6604 759.633789 C 3254.476318 767.404297 3254.47876 774.287109 3254.463623 781.326416 C 3254.453369 786.085938 3253.643799 791.1604 3253.859375 795.932861 C 3254.145996 802.272949 3256.003418 809.111084 3256.489746 815.799316 C 3256.928223 821.832275 3256.601074 827.437012 3256.719238 832.790771 C 3256.801514 836.520752 3256.770752 840.202637 3257.066406 844.121582 C 3257.547607 850.496094 3258.765381 857.494141 3259.501465 864.320068 C 3260.47998 873.397949 3261.358643 883.18042 3262.167969 892.364014 C 3262.855957 900.174561 3263.455322 908.311035 3264.060547 915.695801 C 3264.49292 920.971191 3264.729736 926.581787 3265.387939 931.736084 C 3266.269531 938.634766 3268.140381 946.168213 3269.172852 953.58252 C 3270.198242 960.944092 3270.91333 968.57959 3271.48291 975.44873 C 3272.015869 981.876465 3272.195557 989.013428 3272.714355 995.869873 C 3273.25 1002.948242 3274.045166 1010.310059 3274.63916 1017.011475 C 3275.401855 1025.609131 3275.905762 1035.303223 3277.030518 1044.716064 C 3278.151611 1054.099609 3280.045166 1063.578857 3281.21875 1072.103516 C 3282.091797 1078.447998 3283.029785 1085.080566 3283.627686 1091.778809 C 3284.219971 1098.412842 3283.835205 1105.449707 3284.751953 1111.763916 C 3285.417725 1116.348145 3287.347168 1120.932861 3287.968018 1125.366211 C 3288.526611 1129.356934 3288.390625 1133.12793 3288.513184 1137.203857 C 3288.634766 1141.250732 3288.42627 1145.11377 3288.680908 1149.10376 C 3289.000977 1154.108643 3289.645996 1159.60083 3290.477295 1164.856445 C 3291.506592 1171.364502 3293.158203 1177.462402 3294.342041 1183.904053 C 3296.31665 1194.648926 3298.190674 1205.057373 3299.880371 1217.519775 C 3301.37085 1228.510498 3301.803711 1239.741455 3303.28833 1249.468262 C 3304.244873 1255.735352 3306.148926 1262.493652 3307.204346 1269.122559 C 3308.291016 1275.949951 3308.713623 1283.182373 3309.66748 1289.708496 C 3310.371826 1294.529541 3311.338135 1299.579102 3312.184082 1304.272949 C 3313.174805 1309.768555 3314.477051 1315.756104 3315.430176 1321.565674 C 3316.593262 1328.653564 3317.338135 1336.321777 3318.503906 1343.421875 C 3319.64209 1350.354004 3321.203125 1357.68457 3322.47168 1364.5354 C 3323.544434 1370.327881 3324.69043 1376.415039 3325.660156 1382.010254 C 3326.688965 1387.946533 3327.640869 1394.48999 3328.731689 1400.71875 C 3330.17041 1408.932617 3331.774902 1417.827881 3333.475586 1426.20166 C 3335.113037 1434.264404 3337.359375 1442.638672 3338.812988 1450.445068 C 3340.005127 1456.848633 3340.651611 1463.770996 3341.81543 1470.112061 C 3342.929443 1476.180176 3344.480713 1482.59082 3345.791748 1488.625244 C 3346.881592 1493.642578 3348.194336 1498.81958 3349.083252 1503.608887 C 3349.962158 1508.344238 3350.402344 1513.62085 3351.360596 1518.587402 C 3352.488281 1524.433105 3354.415771 1530.525391 3355.524902 1536.349365 C 3356.323975 1540.544922 3356.670166 1544.904541 3357.34668 1548.733154 C 3357.879639 1551.747559 3358.56665 1555.035889 3359.301758 1558.195557 C 3360.437988 1563.079834 3362.168457 1568.319092 3363.257324 1573.470459 C 3364.330078 1578.542969 3365.089844 1583.901855 3365.777832 1588.764648 C 3366.670166 1595.073975 3367.125488 1602.241211 3368.192627 1609.169678 C 3369.236572 1615.94458 3370.333252 1622.850098 3371.93042 1628.826904 C 3373.213135 1633.626709 3375.714111 1638.616699 3377.11499 1643.750977 C 3378.580811 1649.123535 3379.279053 1654.906006 3380.397217 1660.075195 C 3381.385986 1664.645752 3382.518555 1669.567139 3383.67749 1674.234131 C 3385.112305 1680.012695 3387.181152 1686.134277 3388.415283 1692.107178 C 3389.515625 1697.431641 3389.592529 1703.16333 3390.811523 1708.132813 C 3391.496094 1710.923828 3392.648193 1713.634033 3393.572021 1716.124268 C 3394.824219 1719.500244 3396.672607 1723.156738 3397.893799 1727.014893 C 3399.920898 1733.420654 3401.039307 1740.682373 3402.776123 1747.38623 C 3404.071045 1752.385986 3405.557373 1757.343994 3406.765625 1761.704834 C 3407.674072 1764.983887 3408.51416 1768.720703 3409.68335 1772.296387 C 3410.988037 1776.286377 3412.926025 1780.191895 3414.121582 1783.973145 C 3415.382324 1787.960205 3416.183838 1791.946533 3417.277832 1796.371826 C 3418.786133 1802.4729 3419.850586 1808.519775 3421.681396 1814.728271 C 3423.373535 1820.466553 3426.108154 1826.177734 3427.655029 1831.720703 C 3429.072998 1836.80249 3429.676758 1842.520752 3431.004395 1847.733398 C 3432.736328 1854.533203 3435.069824 1861.851318 3437.355713 1868.814941 C 3440.090088 1877.144775 3443.491211 1885.924316 3446.398438 1894.239746 C 3450.030273 1904.62793 3453.731445 1916.103516 3457.632568 1926.934082 C 3460.654785 1935.324707 3464.211914 1943.532959 3466.66626 1950.89917 C 3467.816406 1954.351318 3468.649658 1958.228516 3469.834717 1961.805176 C 3471.224609 1966 3473.013428 1970.379883 3474.592773 1974.553467 C 3476.451172 1979.465088 3478.649658 1984.708008 3480.44165 1989.802734 C 3482.82373 1996.574219 3484.67334 2004.219238 3487.303223 2011.203125 C 3490.143066 2018.743896 3494.287842 2026.287598 3497.081055 2033.698486 C 3499.422852 2039.911377 3501.129639 2046.441406 3503.13916 2052.554199 C 3504.490234 2056.664551 3505.626465 2060.608643 3507.076172 2064.265381 C 3508.299316 2067.350342 3510.133301 2070.486816 3511.42627 2073.735352 C 3514.139648 2080.552979 3516.11792 2088.620605 3519.037598 2096.174316 C 3522.05542 2103.983154 3525.928955 2111.673096 3528.872314 2118.766357 C 3530.679688 2123.121826 3532.432373 2127.817627 3534.1604 2132.158447 C 3535.676025 2135.964844 3537.21875 2139.996582 3538.784424 2143.676758 C 3540.255371 2147.13501 3542.025879 2150.758301 3543.533447 2154.236572 C 3544.840576 2157.252441 3546.179688 2160.405273 3547.321289 2163.315674 C 3548.323242 2165.868896 3549.426025 2168.619141 3550.260254 2171.304932 C 3551.233398 2174.437012 3551.503418 2178.050049 3552.766113 2181.118652 C 3554.300537 2184.847168 3557.029785 2188.364502 3559.140625 2191.981201 C 3561.491211 2196.007813 3564.264404 2200.134277 3566.287598 2204.292725 C 3568.686035 2209.222168 3570.412842 2215.006348 3572.661377 2220.265137 C 3575.131348 2226.041016 3577.717529 2232.209961 3580.612793 2237.675293 C 3582.80957 2241.822021 3585.895508 2245.672852 3587.874023 2249.627441 C 3589.561035 2252.999756 3590.625488 2256.966797 3592.24707 2260.51709 C 3594.181152 2264.751221 3596.293457 2268.586426 3598.523682 2272.71875 C 3600.854004 2277.036133 3603.48584 2281.205322 3605.795898 2285.574219 C 3607.955811 2289.660156 3609.686768 2294.241943 3611.98584 2298.135742 C 3614.202637 2301.890625 3617.554932 2305.310059 3619.675049 2309.165039 C 3621.603516 2312.670654 3622.794922 2316.746094 3624.340576 2320.294434 C 3626.792969 2325.922607 3629.210205 2332.462402 3632.546387 2338.431396 C 3635.906738 2344.444336 3640.229004 2349.982666 3643.791748 2355.067383 C 3646.312012 2358.664063 3649.469971 2362.31543 3651.901855 2366.237793 C 3654.870361 2371.025391 3657.354736 2376.558838 3659.931641 2381.584961 C 3661.886963 2385.397949 3663.661865 2389.43335 3665.593018 2392.855469 C 3668.993652 2398.88208 3673.356445 2405.599365 3677.819824 2412.270508 C 3683.156982 2420.247559 3689.040527 2428.206055 3694.243408 2435.405762 C 3697.830811 2440.369629 3701.800537 2445.604004 3705.407715 2450.583008 C 3708.681396 2455.100586 3712.039795 2459.932617 3715.210449 2464.318848 C 3718.557861 2468.949219 3722.084961 2474.115234 3725.79541 2478.773926 C 3731.919922 2486.463379 3739.307861 2494.507813 3746.273193 2502.449463 C 3753.407227 2510.583496 3760.724854 2519.098145 3767.664795 2526.501953 C 3773.680908 2532.92041 3780.431152 2539.73584 3787.00415 2546.083008 C 3796.111084 2554.876709 3806.453369 2564.07959 3816.200195 2572.969238 C 3824.671387 2580.695313 3833.143066 2588.868652 3841.226563 2595.574219 C 3847.077637 2600.427734 3854.047119 2604.938232 3860.09082 2609.925049 C 3865.244141 2614.177246 3870.05835 2619.104248 3874.789795 2623.063721 C 3878.560059 2626.218994 3882.775146 2629.509766 3886.904541 2632.54834 C 3890.809326 2635.421875 3894.971924 2638.232422 3898.771729 2640.746582 C 3902.468262 2643.192383 3906.608643 2645.749023 3910.596191 2648.234375 C 3915.175537 2651.088623 3920.165527 2653.882324 3924.580566 2656.8125 C 3930.281982 2660.595703 3936.031738 2665.618896 3942.253662 2669.471436 C 3949.268066 2673.814941 3957.244629 2677.367676 3964.309326 2681.158203 C 3968.894531 2683.618652 3973.704834 2685.869141 3977.698975 2688.433594 C 3980.227295 2690.057129 3982.678955 2692.142334 3985.073242 2693.969238 C 3987.534912 2695.848145 3990.033936 2698.026367 3992.592041 2699.800781 C 3994.944824 2701.433105 3997.369141 2703.256348 3999.952881 2704.347656 C 4002.166992 2705.282715 4004.812988 2705.313721 4006.998779 2706.115723 C 4010.549072 2707.418945 4014.242676 2709.656738 4018.020996 2711.544922 C 4023.725586 2714.395996 4029.813477 2717.598633 4035.615234 2720.464844 C 4041.138184 2723.193115 4046.950195 2726.120117 4052.420898 2728.551514 C 4056.734375 2730.468018 4061.397949 2732.20459 4065.632813 2733.949219 C 4070.754883 2736.059814 4076.387695 2738.476074 4081.874512 2740.698242 C 4088.145508 2743.238281 4094.802734 2745.838379 4100.953613 2748.228516 C 4105.45166 2749.976563 4110.119629 2751.794922 4114.388672 2753.36792 C 4118.978027 2755.059082 4124.092285 2756.849121 4129.057617 2758.568359 C 4135.62793 2760.843262 4142.682129 2763.304199 4149.361328 2765.432129 C 4155.82666 2767.491211 4162.709961 2769.586182 4169.149414 2771.352539 C 4176.144531 2773.271973 4183.888184 2774.857178 4191.121094 2776.840332 C 4198.699219 2778.918457 4206.830078 2780.891113 4214.004883 2783.681152 C 4221.111816 2786.444336 4228.841309 2788.936523 4234.905273 2793.809082 C 4241.046875 2798.743652 4244.849121 2804.026855 4248.289063 2810.761963 C 4250.863281 2815.801758 4251.708008 2821.84082 4252.921875 2827.111572 C 4271.963379 2909.810791 4367.314453 3458.329102 4380.351563 3541.570801 C 4381.549316 3549.217773 4383.403809 3557.748535 4383.678223 3566.210205 Z M 3283.297363 2589.030762 C 3282.969727 2584.426514 3281.498535 2579.299316 3279.614014 2574.482422 C 3263.9646 2534.485352 3133.156738 2300.239014 3110.671387 2263.710938 C 3108.587891 2260.326172 3105.983643 2256.902832 3103.661133 2253.586914 C 3101.523438 2250.53418 3099.668213 2247.015137 3097.185547 2244.443359 C 3095.172363 2242.35791 3092.756104 2240.274414 3090.132568 2239.064453 C 3087.478027 2237.840332 3084.297852 2237.19165 3081.3479 2237.166504 C 3076.574707 2237.125977 3071.315918 2238.620605 3066.352539 2240.139648 C 3057.774414 2242.763916 3048.781006 2247.001221 3040.224121 2251.128906 C 2965.088135 2287.37085 2514.451172 2554.021973 2438.844482 2580.242188 C 2434.681641 2581.685791 2430.086182 2583.187012 2426.139404 2582.382568 C 2423.372314 2581.818848 2420.804443 2579.75293 2418.776367 2577.672852 C 2415.890625 2574.712402 2413.443359 2570.663574 2412.060547 2566.557373 C 2408.171631 2555.01001 2408.762451 2542.996582 2407.950928 2527.993408 C 2403.61084 2447.757813 2406.10376 1972.281494 2406.73291 1889.700928 C 2406.863525 1872.576172 2406.052246 1855.031982 2407.592285 1839.581055 C 2408.216797 1833.316406 2409.735596 1827.123291 2410.884277 1821.648193 C 2411.615723 1818.162842 2412.400635 1814.338379 2413.462402 1810.73999 C 2414.705078 1806.529053 2415.890381 1802.144531 2417.898682 1798.270996 C 2419.404297 1795.36792 2421.32959 1792.526855 2423.453125 1790.405029 C 2425.499268 1788.360596 2428.362305 1786.77124 2431.015381 1785.075439 C 2434.468018 1782.868408 2438.347412 1780.842529 2441.868164 1778.809326 C 2447.278564 1775.685547 2453.301514 1772.120361 2459.250488 1768.773438 C 2530.469238 1728.703369 2987.796631 1481.558594 3055.750732 1441.845947 C 3062.177246 1438.090576 3069.367676 1434.03418 3075.785156 1429.386475 C 3081.984619 1424.896973 3088.185791 1421.43457 3092.000732 1415.806641 C 3093.928955 1412.961914 3094.992432 1409.34082 3095.188232 1406.116943 C 3095.474854 1401.400146 3093.970703 1396.025635 3092.188477 1391.044434 C 3077.860107 1350.992188 2953.162354 1128.635742 2933.438965 1093.890381 C 2932.070801 1091.47998 2930.347656 1089.02124 2929.000977 1086.519287 C 2927.135498 1083.053711 2925.833252 1078.858887 2923.662598 1075.34375 C 2920.542236 1070.290527 2916.630127 1065.015625 2912.230469 1060.634521 C 2907.955078 1056.377197 2903.183105 1051.962891 2897.954102 1049.634521 C 2894.222168 1047.972168 2890.179443 1047.234863 2886.246338 1047.486328 C 2879.834229 1047.896729 2873.041748 1051.184814 2866.393311 1053.830322 C 2860.130615 1056.32251 2854.170654 1059.54248 2848.901123 1062.239258 C 2803.738281 1085.350586 2511.092041 1245.107422 2466.400635 1270.1521 C 2461.161377 1273.088379 2455.506836 1277.102051 2449.29248 1280.031494 C 2442.22583 1283.363037 2435.272949 1287.225586 2428.231445 1287.895752 C 2424.075928 1288.29126 2419.767822 1287.864746 2416.219971 1285.86377 C 2412.959961 1284.024902 2410.341797 1280.950928 2408.966553 1277.446289 C 2399.791504 1254.068359 2406.508545 1225.818359 2405.864258 1192.967529 C 2403.69165 1082.139648 2409.356689 581.683594 2404.122803 496.72998 C 2403.44165 485.674561 2403.857422 474.791748 2400.429932 466.248291 C 2398.976074 462.624268 2396.165039 458.991211 2392.937256 456.236816 C 2388.665283 452.591553 2384.307373 450.552002 2378.969238 448.884277 C 2373.405273 447.145752 2366.943848 447.399658 2361.06958 446.706055 C 2353.821777 445.850342 2345.948486 444.625488 2338.406738 444.113037 C 2321.213623 442.945801 2301.577148 443.328369 2282.186768 442.893555 C 2263.543213 442.47583 2244.847656 441.810059 2228.548584 441.651611 C 2202.633545 441.400146 2172.397461 441.549316 2141.692627 441.97583 C 2106.47998 442.465332 2070.703857 442.981689 2039.144531 444.443115 C 2025.66333 445.067383 2011.635254 445.278809 1999.1875 447.184326 C 1993.275391 448.088867 1987.189941 448.926514 1982.453857 451.195801 C 1980.044678 452.349854 1977.547363 454.095947 1975.895508 456.267822 C 1973.459473 459.470947 1972.216797 463.401367 1971.217773 467.712402 C 1969.607422 474.663086 1969.964111 482.640137 1969.703369 490.149902 C 1966.600342 579.489014 1975.370605 1145.662598 1968.163208 1243.447266 C 1967.578125 1251.387695 1967.061401 1259.900879 1964.688477 1267.225098 C 1963.133423 1272.025635 1961.750122 1276.928467 1958.183716 1279.674561 C 1955.073486 1282.069092 1950.467041 1282.462891 1946.241333 1282.382324 C 1939.41333 1282.251709 1933.170166 1279.699219 1926.324951 1277.059082 C 1919.645142 1274.482666 1913.260742 1270.424072 1907.213989 1267.228027 C 1858.547363 1241.507568 1552.38855 1071.431396 1503.523438 1048.117188 C 1499.166016 1046.038086 1494.421509 1043.883789 1489.792114 1042.423584 C 1484.825073 1040.856934 1479.35498 1038.607178 1474.084595 1038.943604 C 1468.656372 1039.290039 1464.401123 1040.843262 1460.070435 1043.989746 C 1455.716431 1047.152832 1452.889404 1052.570801 1449.894775 1057.105957 C 1427.230713 1091.431396 1304.65564 1316.326172 1285.598755 1352.682617 C 1283.124023 1357.404053 1280.675171 1362.569092 1278.349854 1367.378906 C 1275.694458 1372.870117 1272.398682 1378.666016 1270.21228 1384.550049 C 1268.317261 1389.650635 1265.76001 1394.950439 1265.952148 1400.007813 C 1266.105469 1404.067139 1267.926025 1408.04541 1270.123291 1411.626953 C 1273.338379 1416.867188 1278.431396 1421.605957 1283.44873 1425.76123 C 1288.063232 1429.583252 1293.18689 1432.431396 1297.94873 1435.026611 C 1300.653442 1436.501221 1303.727295 1437.543945 1306.400146 1438.896729 C 1378.553101 1475.415283 1851.362549 1739.385498 1922.501465 1781.626709 C 1927.52417 1784.609131 1932.824341 1788.035645 1937.790283 1791.297852 C 1942.270264 1794.240723 1947.315552 1796.887695 1951.077393 1800.356689 C 1954.577515 1803.583984 1957.90918 1807.662842 1960.409302 1811.908936 C 1963.182983 1816.620605 1965.544922 1822.0896 1966.682373 1827.402588 C 1970.71167 1846.223389 1968.614014 1867.60791 1969.050537 1891.239258 C 1970.78125 1984.91626 1972.918945 2450.943359 1968.966309 2531.743896 C 1968.476563 2541.756836 1968.425781 2551.718262 1966.102905 2560.979248 C 1964.629517 2566.853516 1963.295898 2572.905762 1959.499878 2576.868652 C 1957.459961 2578.997803 1954.732788 2580.072754 1951.990479 2580.375244 C 1949.024536 2580.702393 1945.796143 2579.347168 1942.833374 2578.35498 C 1937.124146 2576.442871 1931.114136 2573.263184 1925.206055 2570.287598 C 1855.198975 2535.02832 1414.109253 2286.736328 1344.607788 2250.137207 C 1339.500488 2247.447266 1334.064331 2244.850342 1329.174561 2242.385254 C 1325.92334 2240.746094 1322.489746 2239.088379 1319.421387 2237.449219 C 1315.695313 2235.458496 1311.746826 2232.858887 1307.652588 2230.819824 C 1302.600342 2228.303711 1297.282227 2225.313965 1291.879883 2223.942383 C 1287.328613 2222.786865 1282.557739 2222.15332 1278.085083 2222.751953 C 1274.199463 2223.271973 1270.042358 2224.699219 1266.781616 2226.905029 C 1263.577515 2229.072021 1261.445435 2232.568848 1258.997925 2235.541504 C 1256.741943 2238.281738 1254.548828 2241.300537 1252.537231 2244.14502 C 1250.826782 2246.563232 1249.088135 2249.109375 1247.576172 2251.601563 C 1229.379395 2281.590332 1123.161987 2476.506836 1105.250854 2509.85498 C 1101.574585 2516.700439 1097.582397 2524.022949 1094.168579 2531.035645 C 1091.84375 2535.811523 1089.896362 2540.790039 1087.869995 2544.989258 C 1087.022095 2546.746582 1085.737305 2548.435791 1085.150879 2550.272461 C 1083.445801 2555.615234 1081.550293 2562.109863 1082.508911 2568.6875 C 1084.017212 2579.037109 1087.956909 2586.678711 1094.546631 2594.801514 C 1099.258911 2600.609375 1106.224854 2604.425781 1112.020386 2607.800293 C 1115.345459 2609.736084 1119.418945 2610.829102 1122.912598 2612.598145 C 1126.182129 2614.253418 1129.382202 2616.347168 1132.475708 2618.105957 C 1220.11792 2667.928711 1813.182617 3001.762695 1902.140503 3049.94043 C 1905.970947 3052.014648 1910.133545 3054.026855 1913.902344 3056.084717 C 1919.677856 3059.238281 1926.094727 3062.873535 1932.292236 3066.569824 C 1938.531616 3070.290771 1945.453003 3073.435303 1950.399048 3077.855469 C 1954.901611 3081.878906 1959.005249 3086.34082 1961.926147 3092.416992 C 1966.976318 3102.922607 1968.117432 3113.335449 1969.682129 3126.056885 C 1971.174072 3138.1875 1970.150146 3150.299805 1970.330566 3161.813965 C 1971.209717 3217.963867 1963.297485 3520.305664 1975.721191 3570.630615 C 1977.004395 3575.828369 1979.266357 3581.377686 1982.942383 3584.815918 C 1986.825439 3588.44751 1992.01709 3589.956055 1997.784424 3591.161133 C 2048.821289 3601.824219 2333.190186 3603.916992 2381.748291 3594.208984 C 2387.574707 3593.043945 2393.30249 3591.051758 2397.273682 3587.597168 C 2400.781006 3584.546387 2403.125488 3579.551758 2404.960938 3574.81958 C 2407.042236 3569.45459 2407.587402 3564.670898 2408.051514 3559.449463 C 2408.599121 3553.285645 2407.706299 3546.44873 2407.63208 3539.665527 C 2407.137939 3494.556885 2406.345459 3225.930176 2407.372559 3173.236572 C 2407.711426 3155.84375 2407.293945 3137.783447 2409.415527 3121.762207 C 2410.538574 3113.282959 2411.066895 3105.008789 2414.741699 3098.345703 C 2417.016846 3094.220703 2421.041016 3091.356934 2424.721436 3088.344238 C 2428.641113 3085.135254 2433.551025 3082.654297 2437.719238 3079.725098 C 2441.564697 3077.022461 2445.295898 3073.704102 2449.138184 3071.229492 C 2537.884766 3014.07373 3162.484863 2683.649658 3253.336914 2626.969727 C 3260.235596 2622.665527 3267.99707 2618.5625 3273.453613 2612.883789 C 3277.50708 2608.665283 3280.415771 2604.349854 3282.210449 2599.251709 C 3283.355469 2595.999268 3283.527832 2592.270264 3283.297363 2589.030762 Z"/>
</svg>
